<?xml version="1.0" encoding="UTF-8" standalone="no"?>
<svg
   xmlns:dc="http://purl.org/dc/elements/1.1/"
   xmlns:cc="http://creativecommons.org/ns#"
   xmlns:rdf="http://www.w3.org/1999/02/22-rdf-syntax-ns#"
   xmlns:svg="http://www.w3.org/2000/svg"
   xmlns="http://www.w3.org/2000/svg"
   height="28.299999"
   width="152.43607"
   version="1.1"
   id="svg10"
   viewBox="0 0 152.43607 28.299998"
   style="fill: #fff">
  <defs
     id="defs30" />
  <path
     id="path12"
     d="m 13.1,-3.8146973e-7 c 1.3,0 2.5,0.10000000146973 3.6,0.40000000146973 1.1,0.2 2,0.6 2.8,1.09999998 0.8,0.5 1.4,1.2 1.8,2.1 0.4,0.9 0.6,2 0.6,3.2 0,1.4 -0.3,2.6 -1,3.5000004 -0.6,0.9 -1.6,1.7 -2.8,2.3 1.7,0.5 3,1.4 3.8,2.6 0.8,1.2 1.3,2.7 1.3,4.4 0,1.4 -0.3,2.6 -0.8,3.6 -0.5,1 -1.3,1.9 -2.2,2.5 -0.9,0.6 -2,1.1 -3.2,1.4 -1.2,0.3 -2.4,0.5 -3.6,0.5 L 0,27.6 0,-3.8146973e-7 l 13.1,0 z M 12.3,11.2 c 1.1,0 2,-0.3 2.7,-0.8 0.7,-0.5000004 1,-1.4000004 1,-2.5000004 0,-0.6 -0.1,-1.2 -0.3,-1.6 -0.2,-0.4 -0.5,-0.7 -0.9,-1 -0.4,-0.2 -0.8,-0.4 -1.3,-0.5 -0.5,-0.1 -1,-0.1 -1.6,-0.1 l -5.8,0 0,6.5000004 6.2,0 z M 12.6,23 c 0.6,0 1.2,-0.1 1.7,-0.2 0.5,-0.1 1,-0.3 1.4,-0.6 0.4,-0.3 0.7,-0.6 1,-1.1 0.2,-0.5 0.4,-1.1 0.4,-1.8 0,-1.4 -0.4,-2.4 -1.2,-3.1 -0.8,-0.6 -1.9,-0.9 -3.2,-0.9 l -6.6,0 0,7.7 6.5,0 z" />
  <path
     id="path14"
     d="m 31.9,22.9 c 0.8,0.8 2,1.2 3.6,1.2 1.1,0 2.1,-0.3 2.9,-0.8 0.8,-0.6 1.3,-1.2 1.5,-1.8 l 4.9,0 c -0.8,2.4 -2,4.1 -3.6,5.2 -1.6,1 -3.5,1.6 -5.8,1.6 -1.6,0 -3,-0.3 -4.3,-0.8 -1.3,-0.5 -2.3,-1.2 -3.2,-2.2 -0.9,-0.9 -1.6,-2 -2,-3.3 -0.5,-1.3 -0.7,-2.7 -0.7,-4.3 0,-1.5 0.2,-2.9 0.7,-4.2 0.5,-1.3 1.2,-2.4 2.1,-3.4 0.9,-0.9000004 2,-1.7000004 3.2,-2.2000004 1.3,-0.5 2.6,-0.8 4.2,-0.8 1.7,0 3.2,0.3 4.5,1 1.3,0.7 2.3,1.5 3.1,2.7000004 0.8,1.1 1.4,2.4 1.8,3.8 0.2,1.4 0.3,2.8 0.2,4.4 l -14.5,0 c 0,1.6 0.6,3.1 1.4,3.9 z m 6.3,-10.5 c -0.7,-0.7 -1.8,-1.1 -3.1,-1.1 -0.9,0 -1.6,0.2 -2.2,0.5 -0.6,0.3 -1,0.7 -1.4,1.1 -0.4,0.4 -0.6,0.9 -0.7,1.4 -0.1,0.5 -0.2,0.9 -0.2,1.3 l 9,0 c -0.2,-1.5 -0.7,-2.5 -1.4,-3.2 z" />
  <path
     id="path16"
     d="M 52.8,-3.8146973e-7 52.8,10.4 l 0.1,0 c 0.7,-1.2000004 1.6,-2.0000004 2.7,-2.5000004 1.1,-0.5 2.1,-0.8 3.2,-0.8 1.5,0 2.7,0.2 3.6,0.6 0.9,0.4 1.7,1 2.2,1.7 C 65.1,10.1 65.5,11 65.7,12 c 0.2,1 0.3,2.1 0.3,3.4 l 0,12.3 -5.5,0 0,-11.3 c 0,-1.7 -0.3,-2.9 -0.8,-3.7 -0.5,-0.8 -1.4,-1.2 -2.7,-1.2 -1.5,0 -2.6,0.5 -3.2,1.3 -0.7,0.9 -1,2.4 -1,4.4 l 0,10.5 -5.5,0 0,-27.70000038146972 5.5,0 z" />
  <path
     id="path18"
     d="m 70,10.6 c 0.6,-0.9000004 1.3,-1.5000004 2.2,-2.1000004 0.9,-0.5 1.9,-0.9 3,-1.1 1.1,-0.2 2.2,-0.3 3.3,-0.3 1,0 2,0.1 3.1,0.2 1,0.1 2,0.4 2.8,0.8 0.9,0.4 1.5,1 2.1,1.7 C 87,10.5 87.3,11.5 87.3,12.7 l 0,10.5 c 0,0.9 0.1,1.8 0.2,2.6 0.1,0.8 0.4,1.5 0.7,1.9 l -5.6,0 c -0.2,-0.2 -0.3,-0.6 -0.4,-0.9 -0.1,-0.3 -0.1,-0.7 -0.1,-1 -0.9,0.9 -1.9,1.5 -3.1,1.9 -1.2,0.4 -2.4,0.5 -3.6,0.5 -1,0 -1.8,-0.1 -2.7,-0.4 -0.8,-0.2 -1.5,-0.6 -2.2,-1.1 -0.6,-0.5 -1.1,-1.1 -1.5,-1.9 -0.3,-0.8 -0.5,-1.6 -0.5,-2.7 0,-1.1 0.2,-2.1 0.6,-2.8 0.4,-0.7 0.9,-1.3 1.5,-1.8 0.6,-0.4 1.4,-0.8 2.2,-1 0.8,-0.2 1.6,-0.4 2.5,-0.5 0.8,-0.1 1.6,-0.2 2.4,-0.3 0.8,-0.1 1.5,-0.2 2.1,-0.3 0.6,-0.2 1.1,-0.4 1.5,-0.7 0.4,-0.3 0.5,-0.7 0.5,-1.3 0,-0.6 -0.1,-1.1 -0.3,-1.4 C 81.3,11.7 81,11.4 80.7,11.2 80.4,11 80,10.9 79.6,10.8 c -0.4,-0.1 -0.9,-0.1 -1.4,-0.1 -1.1,0 -1.9,0.2 -2.5,0.7 -0.6,0.5 -1,1.3 -1.1,2.3 l -5.5,0 c 0,-1.2 0.4,-2.3 0.9,-3.1 z m 10.9,7.8 c -0.3,0.1 -0.7,0.2 -1.1,0.3 -0.4,0.1 -0.8,0.1 -1.3,0.2 -0.4,0.1 -0.9,0.1 -1.3,0.2 -0.4,0.1 -0.8,0.2 -1.2,0.3 -0.4,0.1 -0.8,0.3 -1,0.5 -0.3,0.2 -0.5,0.5 -0.7,0.8 C 74,21.1 74,21.5 74,22 c 0,0.5 0.1,0.9 0.3,1.2 0.2,0.3 0.4,0.6 0.7,0.8 0.3,0.2 0.7,0.3 1.1,0.4 0.4,0.1 0.8,0.1 1.3,0.1 1.1,0 1.9,-0.2 2.5,-0.5 0.6,-0.4 1,-0.8 1.3,-1.3 0.3,-0.5 0.5,-1 0.5,-1.5 0.1,-0.5 0.1,-0.9 0.1,-1.2 l 0,-2.1 c -0.3,0.2 -0.6,0.4 -0.9,0.5 z" />
  <path
     id="path20"
     d="m 95.6,7.5999996 0,2.8000004 0.1,0 c 0.7,-1.2000004 1.6,-2.0000004 2.7,-2.5000004 1.1,-0.5 2.3,-0.8 3.4,-0.8 1.5,0 2.7,0.2 3.6,0.6 1,0.4 1.7,1 2.2,1.7 C 108.1,10.1 108.5,11 108.8,12 c 0.2,1 0.3,2.1 0.3,3.4 l 0,12.3 -5.5,0 0,-11.3 c 0,-1.7 -0.3,-2.9 -0.8,-3.7 -0.5,-0.8 -1.4,-1.3 -2.8,-1.3 -1.5,0 -2.6,0.6 -3.3,1.5 -0.7,0.9 -1,2.4 -1,4.4 l 0,10.5 -5.5,0 0,-20.2000004 5.4,0 z" />
  <path
     id="path22"
     d="m 121.4,11.2 c -0.9,0 -1.6,0.2 -2.2,0.6 -0.6,0.4 -1.1,0.9 -1.5,1.6 -0.4,0.6 -0.6,1.3 -0.8,2.1 -0.2,0.8 -0.2,1.5 -0.2,2.3 0,0.7 0.1,1.5 0.2,2.2 0.2,0.8 0.4,1.4 0.8,2 0.4,0.6 0.8,1.1 1.4,1.5 0.6,0.4 1.3,0.6 2.2,0.6 1.3,0 2.3,-0.4 3.1,-1.1 0.7,-0.7 1.2,-1.7 1.3,-3 l 5.3,0 c -0.4,2.7 -1.4,4.7 -3.1,6.1 -1.7,1.4 -3.9,2.1 -6.6,2.1 -1.5,0 -2.9,-0.3 -4.1,-0.8 -1.3,-0.5 -2.3,-1.2 -3.2,-2.1 -0.9,-0.9 -1.6,-2 -2.1,-3.2 -0.5,-1.3 -0.7,-2.6 -0.7,-4.1 0,-1.6 0.2,-3 0.7,-4.3 0.5,-1.3 1.1,-2.5 2,-3.5 0.9,-1.0000004 2,-1.7000004 3.2,-2.3000004 1.3,-0.5 2.7,-0.8 4.3,-0.8 1.2,0 2.3,0.2 3.4,0.5 1.1,0.3 2.1,0.8 2.9,1.4 0.9,0.6 1.6,1.4000004 2.1,2.4000004 0.5,0.9 0.8,2.1 0.9,3.4 l -5.4,0 c -0.2,-2.4 -1.5,-3.6 -3.9,-3.6 z" />
  <rect
     id="rect24"
     height="2.7"
     width="11.2"
     y="1.8999996"
     x="29.4" />
  <path
     id="path26"
     d="m 139.3,22.9 c 0.8,0.8 2.1,1.2 3.6,1.2 1.1,0 2.1,-0.3 2.9,-0.8 0.8,-0.6 1.3,-1.2 1.5,-1.8 l 4.8,0 c -0.8,2.4 -2,4.1 -3.6,5.2 -1.6,1 -3.5,1.6 -5.8,1.6 -1.6,0 -3,-0.3 -4.3,-0.8 -1.3,-0.5 -2.3,-1.2 -3.2,-2.2 -0.9,-0.9 -1.6,-2 -2,-3.3 -0.5,-1.3 -0.7,-2.7 -0.7,-4.3 0,-1.5 0.2,-2.9 0.7,-4.2 0.5,-1.3 1.2,-2.4 2.1,-3.4 0.9,-0.9000004 2,-1.7000004 3.2,-2.2000004 1.3,-0.5 2.7,-0.8 4.2,-0.8 1.7,0 3.2,0.3 4.4,1 1.3,0.7 2.3,1.5 3.1,2.7000004 0.8,1.1 1.4,2.4 1.8,3.8 0.4,1.4 0.5,2.9 0.4,4.5 l -14.5,0 c 0,1.5 0.6,3 1.4,3.8 z m 6.4,-10.5 c -0.7,-0.7 -1.8,-1.1 -3.1,-1.1 -0.9,0 -1.6,0.2 -2.2,0.5 -0.6,0.3 -1.1,0.7 -1.4,1.1 -0.3,0.4 -0.6,0.9 -0.7,1.4 -0.1,0.5 -0.2,0.9 -0.2,1.3 l 9,0 c -0.3,-1.5 -0.8,-2.5 -1.4,-3.2 z" />
</svg>
